HIERARCHY
ROOT mixamorig:Hips
{
	OFFSET 0.000000 104.274902 0.000000
	CHANNELS 6 Xposition Yposition Zposition Xrotation Yrotation Zrotation
	JOINT mixamorig:Spine
	{
		OFFSET 0.000000 10.181549 0.131524
		CHANNELS 6 Xposition Yposition Zposition Xrotation Yrotation Zrotation
		JOINT mixamorig:Spine1
		{
			OFFSET 0.000000 9.893990 -1.470706
			CHANNELS 3 Xrotation Yrotation Zrotation
			JOINT mixamorig:Spine2
			{
				OFFSET 0.000000 9.220787 -1.370636
				CHANNELS 3 Xrotation Yrotation Zrotation
				JOINT mixamorig:Neck
				{
					OFFSET 0.000000 16.740372 -2.049023
					CHANNELS 6 Xposition Yposition Zposition Xrotation Yrotation Zrotation
					JOINT mixamorig:Head
					{
						OFFSET 0.000000 9.617859 1.684975
						CHANNELS 6 Xposition Yposition Zposition Xrotation Yrotation Zrotation
						JOINT mixamorig:HeadTop_End
						{
							OFFSET 0.000000 22.037369 7.501070
							CHANNELS 6 Xposition Yposition Zposition Xrotation Yrotation Zrotation
							End Site
							{
								OFFSET 0.000000 23.106567 -2.828246
							}
						}
					}
				}
				JOINT mixamorig:RightShoulder
				{
					OFFSET -4.570000 11.014862 -2.160841
					CHANNELS 6 Xposition Yposition Zposition Xrotation Yrotation Zrotation
					JOINT mixamorig:RightArm
					{
						OFFSET -10.592869 -0.524796 -2.232105
						CHANNELS 3 Xrotation Yrotation Zrotation
						JOINT mixamorig:RightForeArm
						{
							OFFSET -27.841499 0.000000 0.000000
							CHANNELS 3 Xrotation Yrotation Zrotation
							JOINT mixamorig:RightHand
							{
								OFFSET -28.328800 0.000000 0.000000
								CHANNELS 3 Xrotation Yrotation Zrotation
								JOINT mixamorig:RightHandThumb1
								{
									OFFSET -2.464798 -1.573990 2.681910
									CHANNELS 6 Xposition Yposition Zposition Xrotation Yrotation Zrotation
									JOINT mixamorig:RightHandThumb2
									{
										OFFSET -3.244789 -1.873367 1.873378
										CHANNELS 3 Xrotation Yrotation Zrotation
										JOINT mixamorig:RightHandThumb3
										{
											OFFSET -2.646255 -1.527817 1.527816
											CHANNELS 3 Xrotation Yrotation Zrotation
											JOINT mixamorig:RightHandThumb4
											{
												OFFSET -1.994583 -1.151581 1.151575
												CHANNELS 3 Xrotation Yrotation Zrotation
												End Site
												{
													OFFSET -1.860176 -1.142715 1.365483
												}
											}
										}
									}
								}
								JOINT mixamorig:RightHandIndex1
								{
									OFFSET -9.108299 -0.517883 2.259803
									CHANNELS 6 Xposition Yposition Zposition Xrotation Yrotation Zrotation
									JOINT mixamorig:RightHandIndex2
									{
										OFFSET -3.700005 0.000000 0.000000
										CHANNELS 3 Xrotation Yrotation Zrotation
										JOINT mixamorig:RightHandIndex3
										{
											OFFSET -2.849998 0.000000 0.000000
											CHANNELS 3 Xrotation Yrotation Zrotation
											JOINT mixamorig:RightHandIndex4
											{
												OFFSET -2.772202 0.000000 0.000000
												CHANNELS 3 Xrotation Yrotation Zrotation
												End Site
												{
													OFFSET -2.772202 0.000000 -0.000484
												}
											}
										}
									}
								}
								JOINT mixamorig:RightHandMiddle1
								{
									OFFSET -9.532501 0.000000 0.000000
									CHANNELS 6 Xposition Yposition Zposition Xrotation Yrotation Zrotation
									JOINT mixamorig:RightHandMiddle2
									{
										OFFSET -3.699997 0.000000 0.000000
										CHANNELS 3 Xrotation Yrotation Zrotation
										JOINT mixamorig:RightHandMiddle3
										{
											OFFSET -2.950005 0.000000 0.000000
											CHANNELS 3 Xrotation Yrotation Zrotation
											JOINT mixamorig:RightHandMiddle4
											{
												OFFSET -2.946602 0.000000 0.000000
												CHANNELS 3 Xrotation Yrotation Zrotation
												End Site
												{
													OFFSET -2.946594 0.000000 -0.000982
												}
											}
										}
									}
								}
								JOINT mixamorig:RightHandRing1
								{
									OFFSET -9.103600 -0.043106 -1.865100
									CHANNELS 6 Xposition Yposition Zposition Xrotation Yrotation Zrotation
									JOINT mixamorig:RightHandRing2
									{
										OFFSET -3.379303 0.000000 0.000000
										CHANNELS 3 Xrotation Yrotation Zrotation
										JOINT mixamorig:RightHandRing3
										{
											OFFSET -2.889702 0.000000 0.000000
											CHANNELS 3 Xrotation Yrotation Zrotation
											JOINT mixamorig:RightHandRing4
											{
												OFFSET -2.638794 0.000000 0.000000
												CHANNELS 3 Xrotation Yrotation Zrotation
												End Site
												{
													OFFSET -2.638794 0.000000 0.004219
												}
											}
										}
									}
								}
								JOINT mixamorig:RightHandPinky1
								{
									OFFSET -8.076698 -0.486725 -3.806297
									CHANNELS 6 Xposition Yposition Zposition Xrotation Yrotation Zrotation
									JOINT mixamorig:RightHandPinky2
									{
										OFFSET -3.600006 0.000000 0.000000
										CHANNELS 3 Xrotation Yrotation Zrotation
										JOINT mixamorig:RightHandPinky3
										{
											OFFSET -2.099998 0.000000 0.000000
											CHANNELS 3 Xrotation Yrotation Zrotation
											JOINT mixamorig:RightHandPinky4
											{
												OFFSET -2.115799 0.000000 0.000000
												CHANNELS 3 Xrotation Yrotation Zrotation
												End Site
												{
													OFFSET -2.115799 0.000000 0.000174
												}
											}
										}
									}
								}
							}
						}
					}
				}
				JOINT mixamorig:LeftShoulder
				{
					OFFSET 4.570400 11.014664 -2.160817
					CHANNELS 6 Xposition Yposition Zposition Xrotation Yrotation Zrotation
					JOINT mixamorig:LeftArm
					{
						OFFSET 10.592365 -0.524597 -2.232113
						CHANNELS 3 Xrotation Yrotation Zrotation
						JOINT mixamorig:LeftForeArm
						{
							OFFSET 27.841499 0.000000 0.000000
							CHANNELS 3 Xrotation Yrotation Zrotation
							JOINT mixamorig:LeftHand
							{
								OFFSET 28.328804 0.000000 0.000000
								CHANNELS 3 Xrotation Yrotation Zrotation
								JOINT mixamorig:LeftHandThumb1
								{
									OFFSET 2.466095 -1.576202 2.681697
									CHANNELS 6 Xposition Yposition Zposition Xrotation Yrotation Zrotation
									JOINT mixamorig:LeftHandThumb2
									{
										OFFSET 3.243317 -1.872528 1.872528
										CHANNELS 3 Xrotation Yrotation Zrotation
										JOINT mixamorig:LeftHandThumb3
										{
											OFFSET 2.647881 -1.528763 1.528755
											CHANNELS 3 Xrotation Yrotation Zrotation
											JOINT mixamorig:LeftHandThumb4
											{
												OFFSET 1.998924 -1.154068 1.154079
												CHANNELS 3 Xrotation Yrotation Zrotation
												End Site
												{
													OFFSET 1.884041 -1.149155 1.337651
												}
											}
										}
									}
								}
								JOINT mixamorig:LeftHandIndex1
								{
									OFFSET 9.109299 -0.518005 2.259899
									CHANNELS 6 Xposition Yposition Zposition Xrotation Yrotation Zrotation
									JOINT mixamorig:LeftHandIndex2
									{
										OFFSET 3.699997 0.000000 0.000000
										CHANNELS 3 Xrotation Yrotation Zrotation
										JOINT mixamorig:LeftHandIndex3
										{
											OFFSET 2.849998 0.000000 0.000000
											CHANNELS 3 Xrotation Yrotation Zrotation
											JOINT mixamorig:LeftHandIndex4
											{
												OFFSET 2.774902 0.000000 0.000000
												CHANNELS 3 Xrotation Yrotation Zrotation
												End Site
												{
													OFFSET 2.774902 0.000000 -0.000072
												}
											}
										}
									}
								}
								JOINT mixamorig:LeftHandMiddle1
								{
									OFFSET 9.533394 0.000000 0.000000
									CHANNELS 6 Xposition Yposition Zposition Xrotation Yrotation Zrotation
									JOINT mixamorig:LeftHandMiddle2
									{
										OFFSET 3.700005 0.000000 0.000000
										CHANNELS 3 Xrotation Yrotation Zrotation
										JOINT mixamorig:LeftHandMiddle3
										{
											OFFSET 2.949997 0.000000 0.000000
											CHANNELS 3 Xrotation Yrotation Zrotation
											JOINT mixamorig:LeftHandMiddle4
											{
												OFFSET 2.952904 0.000000 0.000000
												CHANNELS 3 Xrotation Yrotation Zrotation
												End Site
												{
													OFFSET 2.952896 0.000000 0.000165
												}
											}
										}
									}
								}
								JOINT mixamorig:LeftHandRing1
								{
									OFFSET 9.104500 -0.042999 -1.865100
									CHANNELS 6 Xposition Yposition Zposition Xrotation Yrotation Zrotation
									JOINT mixamorig:LeftHandRing2
									{
										OFFSET 3.149994 0.000000 0.000000
										CHANNELS 3 Xrotation Yrotation Zrotation
										JOINT mixamorig:LeftHandRing3
										{
											OFFSET 2.950005 0.000000 0.000000
											CHANNELS 3 Xrotation Yrotation Zrotation
											JOINT mixamorig:LeftHandRing4
											{
												OFFSET 2.644295 0.000000 0.000000
												CHANNELS 3 Xrotation Yrotation Zrotation
												End Site
												{
													OFFSET 2.644302 0.000000 0.000083
												}
											}
										}
									}
								}
								JOINT mixamorig:LeftHandPinky1
								{
									OFFSET 8.077797 -0.486893 -3.806301
									CHANNELS 6 Xposition Yposition Zposition Xrotation Yrotation Zrotation
									JOINT mixamorig:LeftHandPinky2
									{
										OFFSET 3.599998 0.000000 0.000000
										CHANNELS 3 Xrotation Yrotation Zrotation
										JOINT mixamorig:LeftHandPinky3
										{
											OFFSET 2.099998 0.000000 0.000000
											CHANNELS 3 Xrotation Yrotation Zrotation
											JOINT mixamorig:LeftHandPinky4
											{
												OFFSET 2.125504 0.000000 0.000000
												CHANNELS 3 Xrotation Yrotation Zrotation
												End Site
												{
													OFFSET 2.125504 0.000000 -0.001254
												}
											}
										}
									}
								}
							}
						}
					}
				}
			}
		}
	}
	JOINT mixamorig:RightUpLeg
	{
		OFFSET -8.207800 -6.751701 -1.599544
		CHANNELS 6 Xposition Yposition Zposition Xrotation Yrotation Zrotation
		JOINT mixamorig:RightLeg
		{
			OFFSET 0.000000 -44.370155 0.345934
			CHANNELS 3 Xrotation Yrotation Zrotation
			JOINT mixamorig:RightFoot
			{
				OFFSET 0.000000 -44.423664 -3.043536
				CHANNELS 3 Xrotation Yrotation Zrotation
				JOINT mixamorig:RightToeBase
				{
					OFFSET 0.000000 -8.728685 10.710592
					CHANNELS 3 Xrotation Yrotation Zrotation
					JOINT mixamorig:RightToe_End
					{
						OFFSET 0.000000 -0.000664 9.278099
						CHANNELS 3 Xrotation Yrotation Zrotation
						End Site
						{
							OFFSET 0.000000 -0.000664 9.278101
						}
					}
				}
			}
		}
	}
	JOINT mixamorig:LeftUpLeg
	{
		OFFSET 8.207800 -6.751701 -1.599544
		CHANNELS 6 Xposition Yposition Zposition Xrotation Yrotation Zrotation
		JOINT mixamorig:LeftLeg
		{
			OFFSET 0.000000 -44.370049 0.346940
			CHANNELS 3 Xrotation Yrotation Zrotation
			JOINT mixamorig:LeftFoot
			{
				OFFSET 0.000000 -44.423603 -3.044389
				CHANNELS 3 Xrotation Yrotation Zrotation
				JOINT mixamorig:LeftToeBase
				{
					OFFSET 0.000000 -8.728686 10.710592
					CHANNELS 3 Xrotation Yrotation Zrotation
					JOINT mixamorig:LeftToe_End
					{
						OFFSET 0.000000 -0.000680 9.278100
						CHANNELS 3 Xrotation Yrotation Zrotation
						End Site
						{
							OFFSET 0.000000 -0.000680 9.278100
						}
					}
				}
			}
		}
	}
}
MOTION
Frames: 4
Frame Time: 0.033333
0.091280 103.787460 1.492602 -0.938459 -0.862146 -1.542939 0.000000 10.181563 0.131525 1.067422 -0.247322 -1.498640 -3.842173 0.073780 -0.099636 -3.842111 0.079355 -0.101336 0.000000 16.740351 -2.049017 -2.686809 -0.295109 -0.438853 -0.000004 9.617828 1.684989 -8.161562 -5.087352 -9.472938 -0.000003 22.037369 7.501080 -0.000000 -0.000001 -0.000000 -4.569997 11.014818 -2.160836 2.690950 -4.329670 13.690326 3.833129 -5.529674 68.455264 -0.000004 14.391417 0.000012 12.089478 14.495092 -0.748331 -2.464797 -1.573997 2.681908 -3.437000 3.011816 -14.080140 17.425291 -14.677737 5.447071 -19.316197 15.800125 -10.456063 -0.000003 0.000000 0.000005 -9.108285 -0.517880 2.259805 -1.632559 5.381383 12.050634 1.062526 -2.962986 39.448635 0.526580 -2.153017 27.484015 0.000000 0.000000 0.000000 -9.532487 0.000014 -0.000001 -1.718307 0.626473 24.485047 0.834121 -2.661563 34.795682 0.545693 -2.189330 27.988601 -0.000001 -0.000001 0.000001 -9.103604 -0.043094 -1.865106 0.446047 -4.245923 31.539498 0.899630 -2.753357 36.182787 0.396157 -1.881370 23.780162 0.000001 0.000000 -0.000001 -8.076693 -0.486723 -3.806304 -10.096807 -16.487127 27.843401 0.609996 -2.306167 29.627752 0.400386 -1.890925 23.908601 -0.000001 -0.000001 -0.000000 4.570398 11.014659 -2.160813 2.943222 3.598760 -19.489853 13.981063 -17.191644 -55.001205 0.000001 -8.821658 -0.000000 0.255703 -1.979925 -1.603721 2.466081 -1.576218 2.681692 -4.259353 -4.051490 21.939167 18.294672 13.388220 -14.220699 -19.037633 -14.370914 15.402420 0.000001 0.000000 0.000001 9.109296 -0.518004 2.259897 -1.881342 -2.315083 -19.330827 0.909267 3.136680 -32.326698 0.325779 1.928221 -19.179016 0.000001 -0.000002 -0.000002 9.533386 0.000001 -0.000004 0.210212 3.793577 -19.942803 0.798321 2.954329 -30.238607 0.575534 2.534255 -25.587886 -0.000000 -0.000002 -0.000000 9.104502 -0.042999 -1.865103 2.017381 7.498714 -27.733380 1.001654 3.277900 -33.977886 1.098213 3.416564 -35.631444 -0.000000 0.000001 -0.000000 8.077782 -0.486894 -3.806305 -6.408568 9.788546 -28.549101 0.931565 3.171600 -32.732080 0.639939 2.664445 -27.007832 0.000000 0.000001 -0.000000 -8.207802 -6.751698 -1.599544 -1.241661 -11.122844 -4.837844 10.281468 -6.655102 -1.786247 -4.177772 -0.728837 8.503826 -0.000009 0.000001 0.000003 0.000000 -0.000000 0.000000 8.207800 -6.751688 -1.599545 -5.749515 7.487101 4.414256 16.334095 2.316276 2.045053 -8.402386 0.790158 -6.568247 0.000002 -0.000004 0.000001 0.000000 0.000001 0.000000 
0.107263 103.751610 1.684636 -1.062379 -0.503726 -1.710027 0.000000 10.181541 0.131522 0.930669 -0.407881 -1.338532 -3.738691 0.026874 -0.035826 -3.738497 0.031989 -0.037665 -0.000000 16.740376 -2.049021 -2.562927 -0.319801 -0.410266 -0.000002 9.617819 1.684973 -8.471741 -5.157777 -9.848811 -0.000005 22.037384 7.501077 -0.000001 -0.000001 -0.000000 -4.569998 11.014844 -2.160841 2.701953 -4.424550 13.681453 3.839878 -4.986583 68.181537 -0.000013 14.715381 0.000036 11.650613 14.830600 -0.680051 -2.464797 -1.573983 2.681911 -3.437001 3.011815 -14.080141 17.717524 -15.521847 5.935862 -19.024915 16.479653 -10.903188 -0.000004 -0.000003 0.000000 -9.108289 -0.517861 2.259807 -1.677135 5.480140 12.224157 1.067259 -2.968704 39.540078 0.536916 -2.172758 27.757858 -0.000001 -0.000000 0.000001 -9.532505 0.000014 0.000003 -1.844159 0.820160 24.858924 0.828677 -2.653717 34.678291 0.553330 -2.203608 28.187439 -0.000004 -0.000000 -0.000001 -9.103590 -0.043105 -1.865098 0.314044 -4.039288 31.837906 0.893180 -2.744520 36.047969 0.398850 -1.887452 23.861923 -0.000002 -0.000002 -0.000001 -8.076683 -0.486705 -3.806293 -10.126584 -16.281815 28.664207 0.594556 -2.278819 29.241758 0.397582 -1.884595 23.823490 0.000000 0.000000 0.000003 4.570394 11.014670 -2.160815 2.957989 3.397128 -19.865660 11.757215 -17.180736 -54.847870 -0.000004 -7.093360 0.000017 1.875159 -0.627980 -1.989116 2.466093 -1.576220 2.681691 -4.259350 -4.051491 21.939167 18.129523 13.079742 -14.028489 -18.984972 -14.168697 15.279104 0.000001 0.000004 0.000001 9.109286 -0.518018 2.259899 -1.619783 -2.240405 -18.623062 0.891955 3.109194 -32.008811 0.339534 1.967304 -19.583923 0.000001 -0.000001 0.000001 9.533394 0.000005 -0.000000 0.267556 3.938907 -19.340077 0.782385 2.926856 -29.928113 0.573302 2.529589 -25.537271 0.000000 0.000001 -0.000001 9.104492 -0.043007 -1.865101 2.068125 7.668031 -27.050532 0.931620 3.171666 -32.732811 1.094165 3.410929 -35.563658 0.000001 -0.000001 -0.000000 8.077807 -0.486899 -3.806304 -6.396096 9.778082 -28.053084 0.912927 3.142463 -32.393685 0.623240 2.631447 -26.646269 -0.000000 0.000001 0.000000 -8.207801 -6.751709 -1.599544 -0.710341 -11.342958 -4.712075 9.949940 -6.805928 -1.626853 -4.202598 -0.728082 8.620170 -0.063128 0.000002 0.000000 -0.000000 0.000000 0.000000 8.207801 -6.751699 -1.599545 -5.699907 7.353484 4.477367 16.616694 2.080946 2.308603 -8.546158 0.793329 -6.570657 -0.167525 -0.000001 -0.000000 -0.000000 0.000001 -0.000000 
0.127987 103.660431 1.902904 -1.240064 -0.228054 -1.802159 0.000000 10.181540 0.131523 0.947868 -0.592033 -1.274706 -3.624810 -0.026512 0.015662 -3.624518 -0.021851 0.013697 -0.000001 16.740372 -2.049019 -2.426527 -0.338630 -0.379101 -0.000002 9.617863 1.684976 -8.818322 -5.088314 -10.454443 0.000001 22.037399 7.501061 -0.000000 0.000001 -0.000001 -4.569995 11.014868 -2.160838 2.737885 -4.482432 13.976211 2.835635 -4.781850 67.631201 -0.000007 13.481057 0.000018 11.030786 15.279514 -0.709846 -2.464797 -1.573983 2.681902 -3.437002 3.011812 -14.080143 17.749276 -15.610365 5.987851 -18.932943 16.776669 -11.083747 -0.000003 -0.000000 -0.000003 -9.108285 -0.517862 2.259804 -1.597018 5.280124 12.053280 1.059128 -2.958850 39.382912 0.547864 -2.193377 28.044828 -0.000001 -0.000001 0.000000 -9.532488 0.000012 -0.000004 -1.755658 0.764137 24.253136 0.820708 -2.642182 34.505842 0.556480 -2.209499 28.269690 0.000002 -0.000000 -0.000001 -9.103590 -0.043087 -1.865102 0.362589 -4.104821 31.312159 0.863009 -2.702614 35.412895 0.401220 -1.892809 23.933946 0.000002 -0.000000 0.000001 -8.076691 -0.486729 -3.806305 -10.064024 -16.348242 28.919171 0.574288 -2.242274 28.728138 0.391018 -1.869646 23.622836 -0.000001 -0.000000 0.000001 4.570395 11.014654 -2.160814 2.972872 3.087612 -20.358330 9.533194 -17.511476 -54.308053 -0.000012 -5.610390 -0.000003 5.109593 1.717585 -2.556824 2.466097 -1.576230 2.681697 -4.259350 -4.051497 21.939167 18.055597 12.941962 -13.943321 -18.992852 -14.766398 15.529825 0.000004 0.000007 -0.000004 9.109300 -0.518021 2.259899 -1.454727 -2.246075 -17.870415 0.865229 3.066077 -31.512727 0.343713 1.979033 -19.705487 -0.000001 -0.000002 0.000000 9.533405 -0.000011 -0.000001 0.312848 4.061280 -18.790571 0.764450 2.895511 -29.574692 0.577366 2.538076 -25.629375 0.000001 -0.000001 0.000001 9.104502 -0.043006 -1.865099 2.054933 7.700904 -26.539127 0.885238 3.098437 -31.884867 1.099558 3.418438 -35.654113 -0.000001 -0.000003 -0.000001 8.077786 -0.486902 -3.806300 -6.455304 9.675012 -27.547642 0.893041 3.110919 -32.028844 0.616443 2.617880 -26.497978 0.000000 -0.000000 -0.000000 -8.207800 -6.751710 -1.599544 -1.262841 -11.419850 -4.893739 11.658724 -6.848591 -1.511109 -4.220321 -0.771659 8.947127 -1.327506 -0.000002 0.000001 -0.000000 0.000000 0.000000 8.207800 -6.751711 -1.599544 -5.701871 7.372295 4.523454 17.155258 1.723134 2.489074 -8.767173 0.808158 -6.519862 -0.513219 -0.000005 0.000000 0.000000 -0.000000 0.000000 
0.126160 103.619553 2.119924 -1.447819 -0.072777 -1.836413 0.000000 10.181556 0.131523 1.160651 -0.895203 -1.277764 -3.512587 -0.112179 0.061542 -3.512250 -0.107944 0.059662 0.000001 16.740374 -2.049023 -2.332718 -0.319640 -0.395946 -0.000004 9.617816 1.684978 -8.974993 -4.793059 -11.289476 0.000001 22.037354 7.501066 -0.000000 -0.000001 -0.000001 -4.569997 11.014876 -2.160842 2.754462 -4.322519 14.342566 0.915463 -4.924513 67.139004 -0.000001 10.981376 0.000024 11.032512 15.029124 -0.892089 -2.464786 -1.573997 2.681907 -3.437000 3.011813 -14.080140 17.523918 -15.025474 5.641587 -18.963295 16.866804 -11.096216 -0.000005 0.000005 0.000007 -9.108283 -0.517865 2.259804 -1.459877 5.037502 11.555117 1.040605 -2.936163 39.022619 0.553905 -2.204711 28.202686 -0.000002 0.000000 0.000002 -9.532487 0.000001 0.000000 -1.577711 0.592993 23.208640 0.813873 -2.632234 34.357470 0.556212 -2.208987 28.262459 -0.000001 -0.000002 0.000001 -9.103574 -0.043101 -1.865106 0.504125 -4.325499 30.457145 0.823652 -2.646472 34.569872 0.401182 -1.892699 23.932448 0.000001 -0.000001 -0.000003 -8.076697 -0.486716 -3.806311 -9.821002 -16.633418 28.744250 0.561814 -2.219384 28.407699 0.383890 -1.853295 23.403662 0.000000 0.000000 0.000000 4.570398 11.014675 -2.160817 2.929238 2.420748 -20.784935 8.770219 -19.076435 -53.002333 0.000006 -5.392691 -0.000014 8.762989 4.266985 -3.978836 2.466089 -1.576220 2.681692 -4.259352 -4.051494 21.939167 18.116865 13.056820 -14.014357 -19.010901 -15.676198 15.949036 0.000002 0.000003 0.000003 9.109287 -0.518025 2.259895 -1.408325 -2.296507 -17.383591 0.846827 3.035888 -31.166693 0.344241 1.980518 -19.721097 0.000001 -0.000002 -0.000001 9.533390 -0.000001 -0.000004 0.347677 4.162350 -18.544660 0.753150 2.875540 -29.350286 0.584210 2.552276 -25.783425 0.000001 0.000002 -0.000001 9.104493 -0.043011 -1.865102 2.014594 7.639825 -26.377158 0.879811 3.089732 -31.784552 1.110283 3.433321 -35.833491 0.000000 0.000004 0.000000 8.077796 -0.486899 -3.806303 -6.513865 9.584978 -27.304622 0.881736 3.092812 -31.820140 0.621889 2.628787 -26.617061 -0.000001 0.000002 -0.000001 -8.207800 -6.751702 -1.599544 -2.316032 -11.412603 -5.235192 14.134287 -6.779330 -1.421401 -3.506413 -0.819096 9.385929 -3.555328 -0.000003 0.000000 0.000000 0.000002 0.000000 8.207799 -6.751698 -1.599545 -5.584399 7.526113 4.583212 17.455424 1.367739 2.551340 -8.511596 0.819601 -6.474217 -1.458383 0.000003 -0.000001 -0.000000 0.000000 -0.000000 
